<svg xmlns="http://www.w3.org/2000/svg" width="16" height="16" fill="none"><path fill="#2D3440" fill-rule="evenodd" d="M1.6152 1.6153a.9628.9628 0 0 1 .6807-.282h11.407c.2418 0 .3402.0286.3947.0526.0577.0255.1306.074.2861.2294.2072.2072.282.4323.282.6808v11.3686a.658.658 0 0 0-.0011.0373.9626.9626 0 0 1-.9627.9628H2.2959a.963.963 0 0 1-.9627-.9628V2.296a.9628.9628 0 0 1 .282-.6807ZM15.838 14.5437a2.2962 2.2962 0 0 1-2.1362 1.4544H2.2959A2.296 2.296 0 0 1 0 13.702V2.296A2.2961 2.2961 0 0 1 1.4584.1583.664.664 0 0 1 1.8897 0h11.8132c.3375 0 .6429.038.9336.1664.2875.127.5011.3172.69.5061.4815.4816.6725 1.0574.6725 1.6236v11.8133a.664.664 0 0 1-.1609.4343Z" clip-rule="evenodd"/></svg>